<svg width="287" height="617" viewBox="0 0 287 617" fill="none" xmlns="http://www.w3.org/2000/svg">
<rect width="287" height="617" fill="white"/>
<path d="M22.8963 172.182H28.5852L34.5938 186.841H34.8494L40.858 172.182H46.5469V194H42.0724V179.799H41.8913L36.245 193.893H33.1982L27.5518 179.746H27.3707V194H22.8963V172.182ZM57.7196 194.32C56.0364 194.32 54.5875 193.979 53.373 193.297C52.1657 192.608 51.2353 191.635 50.5819 190.378C49.9284 189.114 49.6017 187.619 49.6017 185.893C49.6017 184.21 49.9284 182.732 50.5819 181.461C51.2353 180.19 52.155 179.199 53.3411 178.489C54.5343 177.778 55.9334 177.423 57.5385 177.423C58.6181 177.423 59.623 177.597 60.5534 177.945C61.4909 178.286 62.3077 178.801 63.0037 179.49C63.7069 180.179 64.2537 181.045 64.6444 182.089C65.035 183.126 65.2303 184.341 65.2303 185.733V186.979H51.4128V184.167H60.9583C60.9583 183.513 60.8162 182.935 60.5321 182.43C60.248 181.926 59.8539 181.532 59.3496 181.248C58.8525 180.957 58.2736 180.811 57.6131 180.811C56.9242 180.811 56.3134 180.971 55.7807 181.29C55.2551 181.603 54.8432 182.026 54.5449 182.558C54.2466 183.084 54.0939 183.67 54.0868 184.316V186.99C54.0868 187.8 54.236 188.499 54.5343 189.089C54.8397 189.678 55.2694 190.133 55.8233 190.452C56.3773 190.772 57.0343 190.932 57.7942 190.932C58.2985 190.932 58.7601 190.861 59.1792 190.719C59.5982 190.577 59.9569 190.364 60.2551 190.08C60.5534 189.795 60.7807 189.447 60.937 189.036L65.1344 189.312C64.9213 190.321 64.4846 191.202 63.824 191.955C63.1706 192.7 62.3255 193.283 61.2885 193.702C60.2587 194.114 59.0691 194.32 57.7196 194.32ZM72.7303 184.54V194H68.1919V177.636H72.5172V180.523H72.709C73.0712 179.572 73.6784 178.819 74.5307 178.265C75.383 177.704 76.4164 177.423 77.6309 177.423C78.7672 177.423 79.758 177.672 80.6032 178.169C81.4483 178.666 82.1053 179.376 82.574 180.3C83.0428 181.216 83.2772 182.31 83.2772 183.581V194H78.7388V184.391C78.7459 183.389 78.4902 182.608 77.9718 182.047C77.4533 181.479 76.7395 181.195 75.8304 181.195C75.2196 181.195 74.6799 181.326 74.2111 181.589C73.7495 181.852 73.3873 182.235 73.1245 182.739C72.8688 183.237 72.7374 183.837 72.7303 184.54Z" fill="black"/>
<path d="M23.8963 248V226.182H28.5092V235.802H28.7969L36.6484 226.182H42.1776L34.081 235.951L42.2734 248H36.755L30.7784 239.03L28.5092 241.8V248H23.8963ZM45.5201 248V231.636H50.0584V248H45.5201ZM47.7999 229.527C47.1252 229.527 46.5463 229.303 46.0634 228.856C45.5875 228.401 45.3496 227.858 45.3496 227.226C45.3496 226.601 45.5875 226.065 46.0634 225.617C46.5463 225.163 47.1252 224.935 47.7999 224.935C48.4746 224.935 49.0499 225.163 49.5257 225.617C50.0087 226.065 50.2502 226.601 50.2502 227.226C50.2502 227.858 50.0087 228.401 49.5257 228.856C49.0499 229.303 48.4746 229.527 47.7999 229.527ZM59.7237 248.266C58.4808 248.266 57.3551 247.947 56.3466 247.308C55.3452 246.661 54.5497 245.713 53.9602 244.463C53.3778 243.206 53.0866 241.665 53.0866 239.839C53.0866 237.964 53.3885 236.406 53.9922 235.163C54.5959 233.913 55.3984 232.979 56.3999 232.361C57.4084 231.736 58.5128 231.423 59.7131 231.423C60.6293 231.423 61.3928 231.58 62.0036 231.892C62.6214 232.197 63.1186 232.581 63.495 233.043C63.8786 233.497 64.1697 233.945 64.3686 234.385H64.5071V226.182H69.0348V248H64.5604V245.379H64.3686C64.1555 245.834 63.8537 246.285 63.4631 246.732C63.0795 247.173 62.5788 247.538 61.9609 247.83C61.3501 248.121 60.6044 248.266 59.7237 248.266ZM61.1619 244.655C61.8935 244.655 62.5114 244.456 63.0156 244.058C63.527 243.653 63.9176 243.089 64.1875 242.364C64.4645 241.64 64.603 240.791 64.603 239.818C64.603 238.845 64.468 238 64.1982 237.283C63.9283 236.565 63.5376 236.011 63.0263 235.621C62.5149 235.23 61.8935 235.035 61.1619 235.035C60.4162 235.035 59.7876 235.237 59.2763 235.642C58.7649 236.047 58.3778 236.608 58.1151 237.325C57.8523 238.043 57.7209 238.874 57.7209 239.818C57.7209 240.77 57.8523 241.612 58.1151 242.343C58.3849 243.067 58.772 243.636 59.2763 244.048C59.7876 244.452 60.4162 244.655 61.1619 244.655ZM86.3812 236.303L82.2264 236.558C82.1554 236.203 82.0027 235.884 81.7683 235.599C81.5339 235.308 81.225 235.077 80.8414 234.907C80.465 234.729 80.014 234.641 79.4885 234.641C78.7853 234.641 78.1923 234.79 77.7093 235.088C77.2264 235.379 76.9849 235.77 76.9849 236.26C76.9849 236.651 77.1412 236.981 77.4537 237.251C77.7662 237.521 78.3024 237.737 79.0623 237.901L82.024 238.497C83.6149 238.824 84.801 239.349 85.5822 240.074C86.3635 240.798 86.7541 241.75 86.7541 242.929C86.7541 244.001 86.438 244.942 85.8059 245.752C85.1809 246.562 84.3216 247.194 83.2278 247.648C82.1412 248.096 80.8876 248.32 79.4672 248.32C77.301 248.32 75.5751 247.869 74.2896 246.967C73.0112 246.058 72.2619 244.822 72.0417 243.259L76.5055 243.025C76.6404 243.685 76.9672 244.19 77.4856 244.538C78.0041 244.879 78.6681 245.049 79.4778 245.049C80.2733 245.049 80.9125 244.896 81.3954 244.591C81.8855 244.278 82.1341 243.877 82.1412 243.387C82.1341 242.975 81.96 242.638 81.6191 242.375C81.2782 242.105 80.7527 241.899 80.0424 241.757L77.2086 241.192C75.6106 240.873 74.421 240.319 73.6397 239.531C72.8656 238.742 72.4785 237.737 72.4785 236.516C72.4785 235.464 72.7626 234.559 73.3308 233.799C73.9061 233.039 74.7122 232.453 75.7491 232.041C76.7931 231.629 78.0147 231.423 79.4139 231.423C81.4806 231.423 83.1071 231.86 84.2931 232.734C85.4863 233.607 86.1824 234.797 86.3812 236.303Z" fill="black"/>
<path d="M25.657 299H20.7138L28.2457 277.182H34.1903L41.7116 299H36.7685L31.3033 282.168H31.1328L25.657 299ZM25.348 290.424H37.0241V294.025H25.348V290.424ZM50.8842 299.32C49.2081 299.32 47.7663 298.964 46.5589 298.254C45.3587 297.537 44.4354 296.543 43.7891 295.271C43.1499 294 42.8303 292.537 42.8303 290.882C42.8303 289.206 43.1534 287.736 43.7997 286.472C44.4531 285.2 45.38 284.21 46.5803 283.499C47.7805 282.782 49.2081 282.423 50.8629 282.423C52.2905 282.423 53.5405 282.683 54.6129 283.201C55.6854 283.719 56.5341 284.447 57.1591 285.385C57.7841 286.322 58.1286 287.423 58.1925 288.688H53.9098C53.7891 287.871 53.4695 287.214 52.951 286.717C52.4396 286.212 51.7685 285.96 50.9375 285.96C50.2344 285.96 49.62 286.152 49.0945 286.536C48.576 286.912 48.1712 287.462 47.88 288.187C47.5888 288.911 47.4432 289.788 47.4432 290.818C47.4432 291.862 47.5852 292.75 47.8693 293.482C48.1605 294.213 48.5689 294.771 49.0945 295.154C49.62 295.538 50.2344 295.729 50.9375 295.729C51.456 295.729 51.9212 295.623 52.3331 295.41C52.7521 295.197 53.0966 294.888 53.3665 294.483C53.6435 294.071 53.8246 293.577 53.9098 293.002H58.1925C58.1214 294.252 57.7805 295.353 57.1697 296.305C56.5661 297.249 55.7315 297.988 54.6662 298.521C53.6009 299.053 52.3402 299.32 50.8842 299.32ZM68.4917 299.32C66.8155 299.32 65.3738 298.964 64.1664 298.254C62.9661 297.537 62.0428 296.543 61.3965 295.271C60.7573 294 60.4377 292.537 60.4377 290.882C60.4377 289.206 60.7608 287.736 61.4071 286.472C62.0605 285.2 62.9874 284.21 64.1877 283.499C65.388 282.782 66.8155 282.423 68.4703 282.423C69.8979 282.423 71.1479 282.683 72.2203 283.201C73.2928 283.719 74.1415 284.447 74.7665 285.385C75.3915 286.322 75.736 287.423 75.7999 288.688H71.5172C71.3965 287.871 71.0769 287.214 70.5584 286.717C70.0471 286.212 69.3759 285.96 68.5449 285.96C67.8418 285.96 67.2275 286.152 66.7019 286.536C66.1834 286.912 65.7786 287.462 65.4874 288.187C65.1962 288.911 65.0506 289.788 65.0506 290.818C65.0506 291.862 65.1926 292.75 65.4767 293.482C65.7679 294.213 66.1763 294.771 66.7019 295.154C67.2275 295.538 67.8418 295.729 68.5449 295.729C69.0634 295.729 69.5286 295.623 69.9405 295.41C70.3596 295.197 70.704 294.888 70.9739 294.483C71.2509 294.071 71.432 293.577 71.5172 293.002H75.7999C75.7289 294.252 75.388 295.353 74.7772 296.305C74.1735 297.249 73.339 297.988 72.2736 298.521C71.2083 299.053 69.9476 299.32 68.4917 299.32ZM86.163 299.32C84.4798 299.32 83.0309 298.979 81.8164 298.297C80.609 297.608 79.6786 296.635 79.0252 295.378C78.3718 294.114 78.0451 292.619 78.0451 290.893C78.0451 289.21 78.3718 287.732 79.0252 286.461C79.6786 285.19 80.5984 284.199 81.7844 283.489C82.9776 282.778 84.3768 282.423 85.9819 282.423C87.0614 282.423 88.0664 282.597 88.9968 282.945C89.9343 283.286 90.7511 283.801 91.4471 284.49C92.1502 285.179 92.6971 286.045 93.0877 287.089C93.4783 288.126 93.6737 289.341 93.6737 290.733V291.979H79.8562V289.167H89.4016C89.4016 288.513 89.2596 287.935 88.9755 287.43C88.6914 286.926 88.2972 286.532 87.793 286.248C87.2958 285.957 86.717 285.811 86.0565 285.811C85.3675 285.811 84.7567 285.971 84.2241 286.29C83.6985 286.603 83.2866 287.026 82.9883 287.558C82.69 288.084 82.5373 288.67 82.5302 289.316V291.99C82.5302 292.8 82.6793 293.499 82.9776 294.089C83.283 294.678 83.7127 295.133 84.2667 295.452C84.8207 295.772 85.4776 295.932 86.2376 295.932C86.7418 295.932 87.2035 295.861 87.6225 295.719C88.0415 295.577 88.4002 295.364 88.6985 295.08C88.9968 294.795 89.2241 294.447 89.3803 294.036L93.5778 294.312C93.3647 295.321 92.9279 296.202 92.2674 296.955C91.614 297.7 90.7688 298.283 89.7319 298.702C88.7021 299.114 87.5124 299.32 86.163 299.32ZM110.25 287.303L106.096 287.558C106.025 287.203 105.872 286.884 105.637 286.599C105.403 286.308 105.094 286.077 104.711 285.907C104.334 285.729 103.883 285.641 103.358 285.641C102.654 285.641 102.061 285.79 101.578 286.088C101.096 286.379 100.854 286.77 100.854 287.26C100.854 287.651 101.01 287.981 101.323 288.251C101.635 288.521 102.172 288.737 102.931 288.901L105.893 289.497C107.484 289.824 108.67 290.349 109.451 291.074C110.233 291.798 110.623 292.75 110.623 293.929C110.623 295.001 110.307 295.942 109.675 296.752C109.05 297.562 108.191 298.194 107.097 298.648C106.01 299.096 104.757 299.32 103.336 299.32C101.17 299.32 99.4442 298.869 98.1587 297.967C96.8803 297.058 96.131 295.822 95.9109 294.259L100.375 294.025C100.51 294.685 100.836 295.19 101.355 295.538C101.873 295.879 102.537 296.049 103.347 296.049C104.142 296.049 104.782 295.896 105.265 295.591C105.755 295.278 106.003 294.877 106.01 294.387C106.003 293.975 105.829 293.638 105.488 293.375C105.147 293.105 104.622 292.899 103.912 292.757L101.078 292.192C99.4798 291.873 98.2901 291.319 97.5089 290.531C96.7347 289.742 96.3477 288.737 96.3477 287.516C96.3477 286.464 96.6317 285.559 97.1999 284.799C97.7752 284.039 98.5813 283.453 99.6183 283.041C100.662 282.629 101.884 282.423 103.283 282.423C105.35 282.423 106.976 282.86 108.162 283.734C109.355 284.607 110.051 285.797 110.25 287.303ZM127.096 287.303L122.941 287.558C122.87 287.203 122.718 286.884 122.483 286.599C122.249 286.308 121.94 286.077 121.556 285.907C121.18 285.729 120.729 285.641 120.203 285.641C119.5 285.641 118.907 285.79 118.424 286.088C117.941 286.379 117.7 286.77 117.7 287.26C117.7 287.651 117.856 287.981 118.169 288.251C118.481 288.521 119.017 288.737 119.777 288.901L122.739 289.497C124.33 289.824 125.516 290.349 126.297 291.074C127.078 291.798 127.469 292.75 127.469 293.929C127.469 295.001 127.153 295.942 126.521 296.752C125.896 297.562 125.036 298.194 123.943 298.648C122.856 299.096 121.602 299.32 120.182 299.32C118.016 299.32 116.29 298.869 115.004 297.967C113.726 297.058 112.977 295.822 112.757 294.259L117.22 294.025C117.355 294.685 117.682 295.19 118.2 295.538C118.719 295.879 119.383 296.049 120.193 296.049C120.988 296.049 121.627 295.896 122.11 295.591C122.6 295.278 122.849 294.877 122.856 294.387C122.849 293.975 122.675 293.638 122.334 293.375C121.993 293.105 121.468 292.899 120.757 292.757L117.923 292.192C116.325 291.873 115.136 291.319 114.355 290.531C113.58 289.742 113.193 288.737 113.193 287.516C113.193 286.464 113.477 285.559 114.046 284.799C114.621 284.039 115.427 283.453 116.464 283.041C117.508 282.629 118.73 282.423 120.129 282.423C122.195 282.423 123.822 282.86 125.008 283.734C126.201 284.607 126.897 285.797 127.096 287.303ZM137.72 299.32C136.065 299.32 134.634 298.968 133.427 298.265C132.227 297.555 131.3 296.567 130.646 295.303C129.993 294.032 129.666 292.558 129.666 290.882C129.666 289.192 129.993 287.714 130.646 286.45C131.3 285.179 132.227 284.192 133.427 283.489C134.634 282.778 136.065 282.423 137.72 282.423C139.375 282.423 140.803 282.778 142.003 283.489C143.21 284.192 144.141 285.179 144.794 286.45C145.447 287.714 145.774 289.192 145.774 290.882C145.774 292.558 145.447 294.032 144.794 295.303C144.141 296.567 143.21 297.555 142.003 298.265C140.803 298.968 139.375 299.32 137.72 299.32ZM137.741 295.804C138.494 295.804 139.123 295.591 139.627 295.165C140.131 294.732 140.511 294.142 140.767 293.396C141.03 292.651 141.161 291.802 141.161 290.85C141.161 289.898 141.03 289.05 140.767 288.304C140.511 287.558 140.131 286.969 139.627 286.536C139.123 286.102 138.494 285.886 137.741 285.886C136.982 285.886 136.342 286.102 135.824 286.536C135.313 286.969 134.925 287.558 134.663 288.304C134.407 289.05 134.279 289.898 134.279 290.85C134.279 291.802 134.407 292.651 134.663 293.396C134.925 294.142 135.313 294.732 135.824 295.165C136.342 295.591 136.982 295.804 137.741 295.804ZM148.725 299V282.636H153.125V285.491H153.295C153.594 284.476 154.094 283.709 154.798 283.19C155.501 282.665 156.31 282.402 157.227 282.402C157.454 282.402 157.699 282.416 157.962 282.445C158.224 282.473 158.455 282.512 158.654 282.562V286.589C158.441 286.525 158.146 286.468 157.77 286.418C157.393 286.369 157.049 286.344 156.737 286.344C156.069 286.344 155.472 286.489 154.947 286.781C154.428 287.065 154.016 287.462 153.711 287.974C153.413 288.485 153.263 289.075 153.263 289.742V299H148.725ZM161.001 299V282.636H165.539V299H161.001ZM163.28 280.527C162.606 280.527 162.027 280.303 161.544 279.856C161.068 279.401 160.83 278.858 160.83 278.226C160.83 277.601 161.068 277.065 161.544 276.617C162.027 276.163 162.606 275.935 163.28 275.935C163.955 275.935 164.53 276.163 165.006 276.617C165.489 277.065 165.731 277.601 165.731 278.226C165.731 278.858 165.489 279.401 165.006 279.856C164.53 280.303 163.955 280.527 163.28 280.527ZM176.632 299.32C174.949 299.32 173.5 298.979 172.285 298.297C171.078 297.608 170.147 296.635 169.494 295.378C168.841 294.114 168.514 292.619 168.514 290.893C168.514 289.21 168.841 287.732 169.494 286.461C170.147 285.19 171.067 284.199 172.253 283.489C173.446 282.778 174.846 282.423 176.451 282.423C177.53 282.423 178.535 282.597 179.466 282.945C180.403 283.286 181.22 283.801 181.916 284.49C182.619 285.179 183.166 286.045 183.556 287.089C183.947 288.126 184.142 289.341 184.142 290.733V291.979H170.325V289.167H179.87C179.87 288.513 179.728 287.935 179.444 287.43C179.16 286.926 178.766 286.532 178.262 286.248C177.765 285.957 177.186 285.811 176.525 285.811C175.836 285.811 175.225 285.971 174.693 286.29C174.167 286.603 173.755 287.026 173.457 287.558C173.159 288.084 173.006 288.67 172.999 289.316V291.99C172.999 292.8 173.148 293.499 173.446 294.089C173.752 294.678 174.181 295.133 174.735 295.452C175.289 295.772 175.946 295.932 176.706 295.932C177.211 295.932 177.672 295.861 178.091 295.719C178.51 295.577 178.869 295.364 179.167 295.08C179.466 294.795 179.693 294.447 179.849 294.036L184.047 294.312C183.833 295.321 183.397 296.202 182.736 296.955C182.083 297.7 181.238 298.283 180.201 298.702C179.171 299.114 177.981 299.32 176.632 299.32ZM200.719 287.303L196.564 287.558C196.493 287.203 196.341 286.884 196.106 286.599C195.872 286.308 195.563 286.077 195.179 285.907C194.803 285.729 194.352 285.641 193.826 285.641C193.123 285.641 192.53 285.79 192.047 286.088C191.564 286.379 191.323 286.77 191.323 287.26C191.323 287.651 191.479 287.981 191.792 288.251C192.104 288.521 192.64 288.737 193.4 288.901L196.362 289.497C197.953 289.824 199.139 290.349 199.92 291.074C200.701 291.798 201.092 292.75 201.092 293.929C201.092 295.001 200.776 295.942 200.144 296.752C199.519 297.562 198.659 298.194 197.566 298.648C196.479 299.096 195.225 299.32 193.805 299.32C191.639 299.32 189.913 298.869 188.627 297.967C187.349 297.058 186.6 295.822 186.38 294.259L190.843 294.025C190.978 294.685 191.305 295.19 191.824 295.538C192.342 295.879 193.006 296.049 193.816 296.049C194.611 296.049 195.25 295.896 195.733 295.591C196.223 295.278 196.472 294.877 196.479 294.387C196.472 293.975 196.298 293.638 195.957 293.375C195.616 293.105 195.091 292.899 194.38 292.757L191.547 292.192C189.949 291.873 188.759 291.319 187.978 290.531C187.203 289.742 186.816 288.737 186.816 287.516C186.816 286.464 187.1 285.559 187.669 284.799C188.244 284.039 189.05 283.453 190.087 283.041C191.131 282.629 192.353 282.423 193.752 282.423C195.819 282.423 197.445 282.86 198.631 283.734C199.824 284.607 200.52 285.797 200.719 287.303Z" fill="black"/>
<path d="M22.8963 360V338.182H31.5043C33.1591 338.182 34.5689 338.498 35.7337 339.13C36.8984 339.755 37.7862 340.625 38.397 341.74C39.0149 342.848 39.3239 344.126 39.3239 345.575C39.3239 347.024 39.0114 348.303 38.3864 349.411C37.7614 350.518 36.8558 351.381 35.6697 351.999C34.4908 352.617 33.0632 352.926 31.3871 352.926H25.9006V349.229H30.6413C31.5291 349.229 32.2607 349.077 32.8359 348.771C33.4183 348.459 33.8516 348.029 34.1357 347.482C34.4268 346.928 34.5724 346.293 34.5724 345.575C34.5724 344.851 34.4268 344.219 34.1357 343.679C33.8516 343.132 33.4183 342.71 32.8359 342.411C32.2536 342.106 31.5149 341.953 30.62 341.953H27.5092V360H22.8963ZM42.2349 360V343.636H46.6348V346.491H46.8052C47.1035 345.476 47.6042 344.709 48.3074 344.19C49.0105 343.665 49.8201 343.402 50.7363 343.402C50.9636 343.402 51.2086 343.416 51.4714 343.445C51.7342 343.473 51.965 343.512 52.1639 343.562V347.589C51.9508 347.525 51.6561 347.468 51.2797 347.418C50.9032 347.369 50.5588 347.344 50.2463 347.344C49.5787 347.344 48.9821 347.489 48.4565 347.781C47.938 348.065 47.5261 348.462 47.2207 348.974C46.9224 349.485 46.7733 350.075 46.7733 350.742V360H42.2349ZM61.142 360.32C59.4872 360.32 58.0561 359.968 56.8487 359.265C55.6484 358.555 54.7216 357.567 54.0682 356.303C53.4148 355.032 53.0881 353.558 53.0881 351.882C53.0881 350.192 53.4148 348.714 54.0682 347.45C54.7216 346.179 55.6484 345.192 56.8487 344.489C58.0561 343.778 59.4872 343.423 61.142 343.423C62.7969 343.423 64.2244 343.778 65.4247 344.489C66.6321 345.192 67.5625 346.179 68.2159 347.45C68.8693 348.714 69.196 350.192 69.196 351.882C69.196 353.558 68.8693 355.032 68.2159 356.303C67.5625 357.567 66.6321 358.555 65.4247 359.265C64.2244 359.968 62.7969 360.32 61.142 360.32ZM61.1634 356.804C61.9162 356.804 62.5447 356.591 63.049 356.165C63.5533 355.732 63.9332 355.142 64.1889 354.396C64.4517 353.651 64.5831 352.802 64.5831 351.85C64.5831 350.898 64.4517 350.05 64.1889 349.304C63.9332 348.558 63.5533 347.969 63.049 347.536C62.5447 347.102 61.9162 346.886 61.1634 346.886C60.4034 346.886 59.7642 347.102 59.2457 347.536C58.7344 347.969 58.3473 348.558 58.0845 349.304C57.8288 350.05 57.701 350.898 57.701 351.85C57.701 352.802 57.8288 353.651 58.0845 354.396C58.3473 355.142 58.7344 355.732 59.2457 356.165C59.7642 356.591 60.4034 356.804 61.1634 356.804ZM80.9467 343.636V347.045H70.8473V343.636H80.9467ZM73.1591 360V342.454C73.1591 341.268 73.3899 340.284 73.8516 339.503C74.3203 338.722 74.9595 338.136 75.7692 337.745C76.5788 337.354 77.4986 337.159 78.5284 337.159C79.2244 337.159 79.8601 337.212 80.4354 337.319C81.0178 337.425 81.451 337.521 81.7351 337.607L80.9254 341.016C80.7479 340.959 80.5277 340.906 80.2649 340.856C80.0092 340.806 79.7464 340.781 79.4766 340.781C78.8089 340.781 78.3438 340.938 78.081 341.25C77.8182 341.555 77.6868 341.985 77.6868 342.539V360H73.1591ZM83.7193 360V343.636H88.2576V360H83.7193ZM85.9991 341.527C85.3244 341.527 84.7456 341.303 84.2626 340.856C83.7868 340.401 83.5488 339.858 83.5488 339.226C83.5488 338.601 83.7868 338.065 84.2626 337.617C84.7456 337.163 85.3244 336.935 85.9991 336.935C86.6738 336.935 87.2491 337.163 87.725 337.617C88.2079 338.065 88.4494 338.601 88.4494 339.226C88.4494 339.858 88.2079 340.401 87.725 340.856C87.2491 341.303 86.6738 341.527 85.9991 341.527ZM96.4315 338.182V360H91.8931V338.182H96.4315ZM107.524 360.32C105.841 360.32 104.392 359.979 103.178 359.297C101.97 358.608 101.04 357.635 100.387 356.378C99.7331 355.114 99.4064 353.619 99.4064 351.893C99.4064 350.21 99.7331 348.732 100.387 347.461C101.04 346.19 101.96 345.199 103.146 344.489C104.339 343.778 105.738 343.423 107.343 343.423C108.423 343.423 109.428 343.597 110.358 343.945C111.296 344.286 112.112 344.801 112.808 345.49C113.512 346.179 114.058 347.045 114.449 348.089C114.84 349.126 115.035 350.341 115.035 351.733V352.979H101.218V350.167H110.763C110.763 349.513 110.621 348.935 110.337 348.43C110.053 347.926 109.659 347.532 109.154 347.248C108.657 346.957 108.078 346.811 107.418 346.811C106.729 346.811 106.118 346.971 105.585 347.29C105.06 347.603 104.648 348.026 104.35 348.558C104.051 349.084 103.899 349.67 103.892 350.316V352.99C103.892 353.8 104.041 354.499 104.339 355.089C104.644 355.678 105.074 356.133 105.628 356.452C106.182 356.772 106.839 356.932 107.599 356.932C108.103 356.932 108.565 356.861 108.984 356.719C109.403 356.577 109.762 356.364 110.06 356.08C110.358 355.795 110.585 355.447 110.742 355.036L114.939 355.312C114.726 356.321 114.289 357.202 113.629 357.955C112.975 358.7 112.13 359.283 111.093 359.702C110.063 360.114 108.874 360.32 107.524 360.32Z" fill="black"/>
<path d="M42.147 407.82H37.4808C37.3956 407.217 37.2216 406.68 36.9588 406.212C36.696 405.736 36.3587 405.331 35.9467 404.997C35.5348 404.663 35.0589 404.408 34.5192 404.23C33.9865 404.053 33.4077 403.964 32.7827 403.964C31.6534 403.964 30.6697 404.244 29.8317 404.805C28.9936 405.359 28.3438 406.169 27.8821 407.234C27.4205 408.293 27.1896 409.578 27.1896 411.091C27.1896 412.646 27.4205 413.953 27.8821 415.011C28.3509 416.07 29.0043 416.869 29.8423 417.408C30.6804 417.948 31.6499 418.218 32.7507 418.218C33.3686 418.218 33.9403 418.136 34.4659 417.973C34.9986 417.81 35.4709 417.572 35.8828 417.259C36.2947 416.94 36.6357 416.553 36.9055 416.098C37.1825 415.643 37.3743 415.125 37.4808 414.543L42.147 414.564C42.0263 415.565 41.7244 416.531 41.2415 417.462C40.7656 418.385 40.1229 419.212 39.3132 419.944C38.5107 420.668 37.5518 421.244 36.4368 421.67C35.3288 422.089 34.0753 422.298 32.6761 422.298C30.7301 422.298 28.9901 421.858 27.456 420.977C25.929 420.097 24.7216 418.822 23.8338 417.153C22.9531 415.484 22.5128 413.463 22.5128 411.091C22.5128 408.712 22.9602 406.688 23.8551 405.018C24.75 403.349 25.9645 402.078 27.4986 401.205C29.0327 400.324 30.7585 399.884 32.6761 399.884C33.9403 399.884 35.1122 400.061 36.1918 400.416C37.2784 400.771 38.2408 401.29 39.0788 401.972C39.9169 402.646 40.5987 403.474 41.1243 404.454C41.657 405.434 41.9979 406.556 42.147 407.82ZM50.0359 422.309C48.9918 422.309 48.0614 422.128 47.2447 421.766C46.4279 421.396 45.7816 420.853 45.3058 420.136C44.837 419.411 44.6026 418.509 44.6026 417.43C44.6026 416.521 44.7695 415.757 45.1033 415.139C45.4371 414.521 45.8917 414.024 46.467 413.648C47.0423 413.271 47.6957 412.987 48.4272 412.795C49.1658 412.604 49.94 412.469 50.7496 412.391C51.7013 412.291 52.4684 412.199 53.0508 412.114C53.6332 412.021 54.0558 411.886 54.3185 411.709C54.5813 411.531 54.7127 411.268 54.7127 410.92V410.857C54.7127 410.182 54.4996 409.66 54.0735 409.29C53.6545 408.921 53.0579 408.737 52.2837 408.737C51.467 408.737 50.8171 408.918 50.3342 409.28C49.8512 409.635 49.5316 410.082 49.3754 410.622L45.1779 410.281C45.391 409.287 45.81 408.428 46.435 407.703C47.06 406.972 47.8661 406.411 48.8533 406.02C49.8477 405.622 50.9982 405.423 52.305 405.423C53.2141 405.423 54.0842 405.53 54.9151 405.743C55.7532 405.956 56.4954 406.286 57.1417 406.734C57.7951 407.181 58.31 407.756 58.6864 408.46C59.0629 409.156 59.2511 409.99 59.2511 410.963V422H54.9471V419.731H54.8192C54.5565 420.242 54.2049 420.693 53.7646 421.084C53.3242 421.467 52.7951 421.769 52.1772 421.989C51.5593 422.202 50.8455 422.309 50.0359 422.309ZM51.3356 419.177C52.0032 419.177 52.5927 419.045 53.104 418.783C53.6154 418.513 54.0167 418.151 54.3079 417.696C54.5991 417.241 54.7447 416.727 54.7447 416.151V414.415C54.6026 414.507 54.4073 414.592 54.1587 414.67C53.9173 414.741 53.6438 414.809 53.3384 414.873C53.033 414.93 52.7276 414.983 52.4222 415.033C52.1168 415.075 51.8398 415.114 51.5913 415.15C51.0586 415.228 50.5934 415.352 50.1957 415.523C49.7979 415.693 49.489 415.924 49.2688 416.215C49.0487 416.499 48.9386 416.854 48.9386 417.281C48.9386 417.898 49.1623 418.371 49.6097 418.697C50.0643 419.017 50.6396 419.177 51.3356 419.177ZM62.772 422V405.636H67.1719V408.491H67.3423C67.6406 407.476 68.1413 406.709 68.8445 406.19C69.5476 405.665 70.3572 405.402 71.2734 405.402C71.5007 405.402 71.7457 405.416 72.0085 405.445C72.2713 405.473 72.5021 405.512 72.701 405.562V409.589C72.4879 409.525 72.1932 409.468 71.8168 409.418C71.4403 409.369 71.0959 409.344 70.7834 409.344C70.1158 409.344 69.5192 409.489 68.9936 409.781C68.4751 410.065 68.0632 410.462 67.7578 410.974C67.4595 411.485 67.3104 412.075 67.3104 412.742V422H62.772ZM84.5716 405.636V409.045H74.7172V405.636H84.5716ZM76.9544 401.716H81.4927V416.972C81.4927 417.391 81.5566 417.717 81.6845 417.952C81.8123 418.179 81.9899 418.339 82.2172 418.431C82.4515 418.523 82.7214 418.57 83.0268 418.57C83.2399 418.57 83.4529 418.552 83.666 418.516C83.8791 418.474 84.0424 418.442 84.1561 418.42L84.8699 421.798C84.6426 421.869 84.323 421.95 83.911 422.043C83.4991 422.142 82.9984 422.202 82.4089 422.224C81.3152 422.266 80.3564 422.121 79.5325 421.787C78.7157 421.453 78.0801 420.935 77.6255 420.232C77.171 419.528 76.9473 418.641 76.9544 417.568V401.716Z" fill="black"/>
<path d="M23.8963 481V459.182H32.6321C34.2372 459.182 35.576 459.42 36.6484 459.896C37.7209 460.371 38.527 461.032 39.0668 461.877C39.6065 462.715 39.8764 463.681 39.8764 464.775C39.8764 465.627 39.706 466.376 39.3651 467.023C39.0241 467.662 38.5554 468.187 37.9588 468.599C37.3693 469.004 36.6946 469.292 35.9347 469.462V469.675C36.7656 469.711 37.5433 469.945 38.2678 470.379C38.9993 470.812 39.5923 471.419 40.0469 472.2C40.5014 472.974 40.7287 473.898 40.7287 474.97C40.7287 476.128 40.4411 477.161 39.8658 478.07C39.2976 478.972 38.456 479.686 37.3409 480.212C36.2259 480.737 34.8516 481 33.218 481H23.8963ZM28.5092 477.229H32.2699C33.5554 477.229 34.4929 476.984 35.0824 476.494C35.6719 475.996 35.9666 475.336 35.9666 474.512C35.9666 473.908 35.821 473.376 35.5298 472.914C35.2386 472.452 34.8232 472.09 34.2834 471.827C33.7507 471.565 33.1151 471.433 32.3764 471.433H28.5092V477.229ZM28.5092 468.312H31.929C32.5611 468.312 33.1222 468.202 33.6122 467.982C34.1094 467.754 34.5 467.435 34.7841 467.023C35.0753 466.611 35.2209 466.117 35.2209 465.542C35.2209 464.754 34.9403 464.118 34.3793 463.635C33.8253 463.152 33.0369 462.911 32.0142 462.911H28.5092V468.312ZM48.1834 459.182V481H43.6451V459.182H48.1834ZM59.2124 481.32C57.5575 481.32 56.1264 480.968 54.919 480.265C53.7188 479.555 52.7919 478.567 52.1385 477.303C51.4851 476.032 51.1584 474.558 51.1584 472.882C51.1584 471.192 51.4851 469.714 52.1385 468.45C52.7919 467.179 53.7188 466.192 54.919 465.489C56.1264 464.778 57.5575 464.423 59.2124 464.423C60.8672 464.423 62.2947 464.778 63.495 465.489C64.7024 466.192 65.6328 467.179 66.2862 468.45C66.9396 469.714 67.2663 471.192 67.2663 472.882C67.2663 474.558 66.9396 476.032 66.2862 477.303C65.6328 478.567 64.7024 479.555 63.495 480.265C62.2947 480.968 60.8672 481.32 59.2124 481.32ZM59.2337 477.804C59.9865 477.804 60.6151 477.591 61.1193 477.165C61.6236 476.732 62.0036 476.142 62.2592 475.396C62.522 474.651 62.6534 473.802 62.6534 472.85C62.6534 471.898 62.522 471.05 62.2592 470.304C62.0036 469.558 61.6236 468.969 61.1193 468.536C60.6151 468.102 59.9865 467.886 59.2337 467.886C58.4737 467.886 57.8345 468.102 57.3161 468.536C56.8047 468.969 56.4176 469.558 56.1548 470.304C55.8991 471.05 55.7713 471.898 55.7713 472.85C55.7713 473.802 55.8991 474.651 56.1548 475.396C56.4176 476.142 56.8047 476.732 57.3161 477.165C57.8345 477.591 58.4737 477.804 59.2337 477.804ZM77.5895 487.477C76.1193 487.477 74.8587 487.275 73.8075 486.87C72.7635 486.472 71.9325 485.929 71.3146 485.24C70.6967 484.551 70.2955 483.777 70.1108 482.918L74.3082 482.353C74.4361 482.68 74.6385 482.985 74.9155 483.269C75.1925 483.553 75.5582 483.781 76.0128 483.951C76.4744 484.129 77.0355 484.217 77.696 484.217C78.6832 484.217 79.4964 483.976 80.1357 483.493C80.782 483.017 81.1051 482.218 81.1051 481.096V478.102H80.9134C80.7145 478.557 80.4162 478.987 80.0185 479.391C79.6207 479.796 79.1094 480.126 78.4844 480.382C77.8594 480.638 77.1136 480.766 76.2472 480.766C75.0185 480.766 73.8999 480.482 72.8913 479.913C71.8899 479.338 71.0909 478.461 70.4943 477.282C69.9048 476.096 69.6101 474.597 69.6101 472.786C69.6101 470.933 69.9119 469.384 70.5156 468.141C71.1193 466.898 71.9219 465.968 72.9233 465.35C73.9318 464.732 75.0362 464.423 76.2365 464.423C77.1527 464.423 77.9197 464.58 78.5376 464.892C79.1555 465.197 79.6527 465.581 80.0291 466.043C80.4126 466.497 80.7074 466.945 80.9134 467.385H81.0838V464.636H85.5902V481.16C85.5902 482.552 85.2493 483.717 84.5675 484.654C83.8857 485.592 82.9411 486.295 81.7337 486.763C80.5334 487.239 79.152 487.477 77.5895 487.477ZM77.6854 477.357C78.4169 477.357 79.0348 477.175 79.5391 476.813C80.0504 476.444 80.4411 475.918 80.7109 475.237C80.9879 474.548 81.1264 473.724 81.1264 472.765C81.1264 471.806 80.9915 470.975 80.7216 470.272C80.4517 469.562 80.0611 469.011 79.5497 468.621C79.0384 468.23 78.4169 468.035 77.6854 468.035C76.9396 468.035 76.3111 468.237 75.7997 468.642C75.2884 469.04 74.9013 469.594 74.6385 470.304C74.3757 471.014 74.2443 471.835 74.2443 472.765C74.2443 473.71 74.3757 474.526 74.6385 475.215C74.9084 475.897 75.2955 476.426 75.7997 476.803C76.3111 477.172 76.9396 477.357 77.6854 477.357Z" fill="black"/>
<path d="M35.7322 533.457C35.647 532.597 35.2813 531.93 34.6349 531.454C33.9886 530.978 33.1115 530.74 32.0036 530.74C31.2507 530.74 30.6151 530.847 30.0966 531.06C29.5781 531.266 29.1804 531.553 28.9034 531.923C28.6335 532.292 28.4986 532.711 28.4986 533.18C28.4844 533.57 28.5661 533.911 28.7436 534.202C28.9283 534.494 29.1804 534.746 29.5 534.959C29.8196 535.165 30.1889 535.346 30.608 535.502C31.027 535.651 31.4744 535.779 31.9503 535.886L33.9105 536.354C34.8622 536.567 35.7358 536.852 36.5312 537.207C37.3267 537.562 38.0156 537.999 38.598 538.517C39.1804 539.036 39.6314 539.646 39.951 540.349C40.2777 541.053 40.4446 541.859 40.4517 542.768C40.4446 544.103 40.1037 545.261 39.429 546.241C38.7614 547.214 37.7955 547.97 36.5312 548.51C35.2741 549.043 33.7578 549.309 31.9822 549.309C30.2209 549.309 28.6868 549.039 27.38 548.499C26.0803 547.96 25.0646 547.161 24.3331 546.102C23.6087 545.037 23.2287 543.719 23.1932 542.15H27.657C27.7067 542.881 27.9162 543.492 28.2855 543.982C28.6619 544.465 29.1626 544.831 29.7876 545.08C30.4197 545.321 31.1335 545.442 31.929 545.442C32.7102 545.442 33.3885 545.328 33.9638 545.101C34.5462 544.874 34.9972 544.558 35.3168 544.153C35.6364 543.748 35.7962 543.283 35.7962 542.757C35.7962 542.267 35.6506 541.855 35.3594 541.521C35.0753 541.187 34.6563 540.903 34.1023 540.669C33.5554 540.435 32.8842 540.222 32.0888 540.03L29.7131 539.433C27.8736 538.986 26.4212 538.286 25.3558 537.335C24.2905 536.383 23.7614 535.101 23.7685 533.489C23.7614 532.168 24.1129 531.013 24.8232 530.026C25.5405 529.039 26.5241 528.268 27.7741 527.714C29.0241 527.161 30.4446 526.884 32.0355 526.884C33.6548 526.884 35.0682 527.161 36.2756 527.714C37.4901 528.268 38.4347 529.039 39.1094 530.026C39.7841 531.013 40.1321 532.157 40.1534 533.457H35.7322ZM48.1355 549.309C47.0914 549.309 46.161 549.128 45.3443 548.766C44.5275 548.396 43.8812 547.853 43.4054 547.136C42.9366 546.411 42.7022 545.509 42.7022 544.43C42.7022 543.521 42.8691 542.757 43.2029 542.139C43.5368 541.521 43.9913 541.024 44.5666 540.648C45.1419 540.271 45.7953 539.987 46.5268 539.795C47.2654 539.604 48.0396 539.469 48.8493 539.391C49.801 539.291 50.568 539.199 51.1504 539.114C51.7328 539.021 52.1554 538.886 52.4181 538.709C52.6809 538.531 52.8123 538.268 52.8123 537.92V537.857C52.8123 537.182 52.5993 536.66 52.1731 536.29C51.7541 535.921 51.1575 535.737 50.3833 535.737C49.5666 535.737 48.9167 535.918 48.4338 536.28C47.9508 536.635 47.6312 537.082 47.475 537.622L43.2775 537.281C43.4906 536.287 43.9096 535.428 44.5346 534.703C45.1596 533.972 45.9657 533.411 46.9529 533.02C47.9473 532.622 49.0978 532.423 50.4047 532.423C51.3137 532.423 52.1838 532.53 53.0147 532.743C53.8528 532.956 54.595 533.286 55.2413 533.734C55.8947 534.181 56.4096 534.756 56.786 535.46C57.1625 536.156 57.3507 536.99 57.3507 537.963V549H53.0467V546.731H52.9189C52.6561 547.242 52.3045 547.693 51.8642 548.084C51.4238 548.467 50.8947 548.769 50.2768 548.989C49.6589 549.202 48.9451 549.309 48.1355 549.309ZM49.4352 546.177C50.1028 546.177 50.6923 546.045 51.2037 545.783C51.715 545.513 52.1163 545.151 52.4075 544.696C52.6987 544.241 52.8443 543.727 52.8443 543.151V541.415C52.7022 541.507 52.5069 541.592 52.2583 541.67C52.0169 541.741 51.7434 541.809 51.438 541.873C51.1326 541.93 50.8272 541.983 50.5218 542.033C50.2164 542.075 49.9395 542.114 49.6909 542.15C49.1582 542.228 48.693 542.352 48.2953 542.523C47.8975 542.693 47.5886 542.924 47.3684 543.215C47.1483 543.499 47.0382 543.854 47.0382 544.281C47.0382 544.898 47.2619 545.371 47.7093 545.697C48.1639 546.017 48.7392 546.177 49.4352 546.177ZM65.41 527.182V549H60.8716V527.182H65.41ZM76.5028 549.32C74.8196 549.32 73.3707 548.979 72.1562 548.297C70.9489 547.608 70.0185 546.635 69.3651 545.378C68.7116 544.114 68.3849 542.619 68.3849 540.893C68.3849 539.21 68.7116 537.732 69.3651 536.461C70.0185 535.19 70.9382 534.199 72.1243 533.489C73.3175 532.778 74.7166 532.423 76.3217 532.423C77.4013 532.423 78.4063 532.597 79.3366 532.945C80.2741 533.286 81.0909 533.801 81.7869 534.49C82.4901 535.179 83.0369 536.045 83.4276 537.089C83.8182 538.126 84.0135 539.341 84.0135 540.733V541.979H70.196V539.167H79.7415C79.7415 538.513 79.5994 537.935 79.3153 537.43C79.0313 536.926 78.6371 536.532 78.1328 536.248C77.6357 535.957 77.0568 535.811 76.3963 535.811C75.7074 535.811 75.0966 535.971 74.5639 536.29C74.0384 536.603 73.6264 537.026 73.3281 537.558C73.0298 538.084 72.8771 538.67 72.87 539.316V541.99C72.87 542.8 73.0192 543.499 73.3175 544.089C73.6229 544.678 74.0526 545.133 74.6065 545.452C75.1605 545.772 75.8175 545.932 76.5774 545.932C77.0817 545.932 77.5433 545.861 77.9624 545.719C78.3814 545.577 78.7401 545.364 79.0384 545.08C79.3366 544.795 79.5639 544.447 79.7202 544.036L83.9176 544.312C83.7045 545.321 83.2678 546.202 82.6072 546.955C81.9538 547.7 81.1087 548.283 80.0717 548.702C79.0419 549.114 77.8523 549.32 76.5028 549.32Z" fill="black"/>
<path d="M22.8963 31.1818H28.5852L34.5938 45.8409H34.8494L40.858 31.1818H46.5469V53H42.0724V38.799H41.8913L36.245 52.8935H33.1982L27.5518 38.7457H27.3707V53H22.8963V31.1818ZM57.7196 53.3196C56.0364 53.3196 54.5875 52.9787 53.373 52.2969C52.1657 51.608 51.2353 50.6349 50.5819 49.3778C49.9284 48.1136 49.6017 46.6186 49.6017 44.8928C49.6017 43.2095 49.9284 41.7322 50.5819 40.4609C51.2353 39.1896 52.155 38.1989 53.3411 37.4886C54.5343 36.7784 55.9334 36.4233 57.5385 36.4233C58.6181 36.4233 59.623 36.5973 60.5534 36.9453C61.4909 37.2862 62.3077 37.8011 63.0037 38.4901C63.7069 39.179 64.2537 40.0455 64.6444 41.0895C65.035 42.1264 65.2303 43.3409 65.2303 44.733V45.9794H51.4128V43.1669H60.9583C60.9583 42.5135 60.8162 41.9347 60.5321 41.4304C60.248 40.9261 59.8539 40.532 59.3496 40.2479C58.8525 39.9567 58.2736 39.8111 57.6131 39.8111C56.9242 39.8111 56.3134 39.9709 55.7807 40.2905C55.2551 40.603 54.8432 41.0256 54.5449 41.5582C54.2466 42.0838 54.0939 42.6697 54.0868 43.3161V45.9901C54.0868 46.7997 54.236 47.4993 54.5343 48.0888C54.8397 48.6783 55.2694 49.1328 55.8233 49.4524C56.3773 49.772 57.0343 49.9318 57.7942 49.9318C58.2985 49.9318 58.7601 49.8608 59.1792 49.7188C59.5982 49.5767 59.9569 49.3636 60.2551 49.0795C60.5534 48.7955 60.7807 48.4474 60.937 48.0355L65.1344 48.3125C64.9213 49.321 64.4846 50.2017 63.824 50.9545C63.1706 51.7003 62.3255 52.2827 61.2885 52.7017C60.2587 53.1136 59.0691 53.3196 57.7196 53.3196ZM72.7303 43.5398V53H68.1919V36.6364H72.5172V39.5234H72.709C73.0712 38.5717 73.6784 37.8189 74.5307 37.2649C75.383 36.7038 76.4164 36.4233 77.6309 36.4233C78.7672 36.4233 79.758 36.6719 80.6032 37.169C81.4483 37.6662 82.1053 38.3764 82.574 39.2997C83.0428 40.2159 83.2772 41.3097 83.2772 42.581V53H78.7388V43.3906C78.7459 42.3892 78.4902 41.608 77.9718 41.0469C77.4533 40.4787 76.7395 40.1946 75.8304 40.1946C75.2196 40.1946 74.6799 40.326 74.2111 40.5888C73.7495 40.8516 73.3873 41.2351 73.1245 41.7393C72.8688 42.2365 72.7374 42.8366 72.7303 43.5398ZM97.3477 46.0327V36.6364H101.886V53H97.5288V50.0277H97.3583C96.989 50.9865 96.3746 51.7571 95.5153 52.3395C94.663 52.9219 93.6225 53.2131 92.3938 53.2131C91.3001 53.2131 90.3377 52.9645 89.5067 52.4673C88.6758 51.9702 88.0259 51.2635 87.5572 50.3473C87.0955 49.4311 86.8612 48.3338 86.854 47.0554V36.6364H91.3924V46.2457C91.3995 47.2116 91.6587 47.9751 92.1701 48.5362C92.6815 49.0973 93.3668 49.3778 94.2262 49.3778C94.7731 49.3778 95.2844 49.2536 95.7603 49.005C96.2362 48.7493 96.6197 48.3729 96.9109 47.8757C97.2092 47.3786 97.3548 46.7642 97.3477 46.0327Z" fill="black"/>
<line y1="79.5" x2="287" y2="79.5" stroke="black"/>
<path d="M26.8075 144L20.5646 122.182H25.6037L29.2152 137.342H29.3963L33.3807 122.182H37.6953L41.669 137.374H41.8608L45.4723 122.182H50.5114L44.2685 144H39.7727L35.6179 129.735H35.4474L31.3033 144H26.8075ZM58.5307 144.32C56.8759 144.32 55.4448 143.968 54.2374 143.265C53.0371 142.555 52.1103 141.567 51.4569 140.303C50.8034 139.032 50.4767 137.558 50.4767 135.882C50.4767 134.192 50.8034 132.714 51.4569 131.45C52.1103 130.179 53.0371 129.192 54.2374 128.489C55.4448 127.778 56.8759 127.423 58.5307 127.423C60.1855 127.423 61.6131 127.778 62.8134 128.489C64.0208 129.192 64.9512 130.179 65.6046 131.45C66.258 132.714 66.5847 134.192 66.5847 135.882C66.5847 137.558 66.258 139.032 65.6046 140.303C64.9512 141.567 64.0208 142.555 62.8134 143.265C61.6131 143.968 60.1855 144.32 58.5307 144.32ZM58.552 140.804C59.3049 140.804 59.9334 140.591 60.4377 140.165C60.9419 139.732 61.3219 139.142 61.5776 138.396C61.8404 137.651 61.9718 136.802 61.9718 135.85C61.9718 134.898 61.8404 134.05 61.5776 133.304C61.3219 132.558 60.9419 131.969 60.4377 131.536C59.9334 131.102 59.3049 130.886 58.552 130.886C57.7921 130.886 57.1529 131.102 56.6344 131.536C56.123 131.969 55.736 132.558 55.4732 133.304C55.2175 134.05 55.0897 134.898 55.0897 135.85C55.0897 136.802 55.2175 137.651 55.4732 138.396C55.736 139.142 56.123 139.732 56.6344 140.165C57.1529 140.591 57.7921 140.804 58.552 140.804ZM69.5357 144V127.636H73.861V130.523H74.0527C74.3936 129.565 74.9618 128.808 75.7573 128.254C76.5527 127.7 77.5044 127.423 78.6124 127.423C79.7346 127.423 80.6898 127.704 81.4782 128.265C82.2665 128.819 82.7921 129.572 83.0549 130.523H83.2253C83.5591 129.586 84.1628 128.837 85.0364 128.276C85.9171 127.707 86.9576 127.423 88.1578 127.423C89.6848 127.423 90.9242 127.91 91.8759 128.883C92.8347 129.849 93.3141 131.219 93.3141 132.995V144H88.7864V133.89C88.7864 132.981 88.5449 132.299 88.062 131.844C87.579 131.39 86.9753 131.163 86.2509 131.163C85.427 131.163 84.7843 131.425 84.3226 131.951C83.861 132.469 83.6301 133.155 83.6301 134.007V144H79.2303V133.794C79.2303 132.991 78.9995 132.352 78.5378 131.876C78.0833 131.401 77.4831 131.163 76.7374 131.163C76.2331 131.163 75.7786 131.29 75.3738 131.546C74.976 131.795 74.66 132.146 74.4256 132.601C74.1912 133.048 74.074 133.574 74.074 134.178V144H69.5357ZM104.356 144.32C102.673 144.32 101.224 143.979 100.01 143.297C98.8024 142.608 97.872 141.635 97.2186 140.378C96.5652 139.114 96.2385 137.619 96.2385 135.893C96.2385 134.21 96.5652 132.732 97.2186 131.461C97.872 130.19 98.7917 129.199 99.9778 128.489C101.171 127.778 102.57 127.423 104.175 127.423C105.255 127.423 106.26 127.597 107.19 127.945C108.128 128.286 108.944 128.801 109.64 129.49C110.344 130.179 110.89 131.045 111.281 132.089C111.672 133.126 111.867 134.341 111.867 135.733V136.979H98.0495V134.167H107.595C107.595 133.513 107.453 132.935 107.169 132.43C106.885 131.926 106.491 131.532 105.986 131.248C105.489 130.957 104.91 130.811 104.25 130.811C103.561 130.811 102.95 130.971 102.417 131.29C101.892 131.603 101.48 132.026 101.182 132.558C100.883 133.084 100.731 133.67 100.724 134.316V136.99C100.724 137.8 100.873 138.499 101.171 139.089C101.476 139.678 101.906 140.133 102.46 140.452C103.014 140.772 103.671 140.932 104.431 140.932C104.935 140.932 105.397 140.861 105.816 140.719C106.235 140.577 106.594 140.364 106.892 140.08C107.19 139.795 107.417 139.447 107.574 139.036L111.771 139.312C111.558 140.321 111.121 141.202 110.461 141.955C109.807 142.7 108.962 143.283 107.925 143.702C106.895 144.114 105.706 144.32 104.356 144.32ZM119.367 134.54V144H114.829V127.636H119.154V130.523H119.346C119.708 129.572 120.315 128.819 121.167 128.265C122.02 127.704 123.053 127.423 124.268 127.423C125.404 127.423 126.395 127.672 127.24 128.169C128.085 128.666 128.742 129.376 129.211 130.3C129.68 131.216 129.914 132.31 129.914 133.581V144H125.376V134.391C125.383 133.389 125.127 132.608 124.608 132.047C124.09 131.479 123.376 131.195 122.467 131.195C121.856 131.195 121.317 131.326 120.848 131.589C120.386 131.852 120.024 132.235 119.761 132.739C119.506 133.237 119.374 133.837 119.367 134.54Z" fill="black"/>
</svg>
